# xmcd
#
# Track frame offsets:
#	150
#	17527
#	29000
#	46255
#	60905
#	73827
#	84215
#	105134
#	124441
#	140735
#	163856
#	176026
#	190007
#	210843
#
# Disc length: 3020 seconds
#
# Revision: 1
# Processed by: cddbd v1.5PL3 Copyright (c) Steve Scherf et al.
# Submitted via: audiograbber 1.83.01
#
DISCID=b70bca0e
DTITLE=Willie Nelson - Teatro
DYEAR=1998
DGENRE=Gangsta
TTITLE0=Ou Es-Tu, Mon Amour? (Where Are You, My Love?)
TTITLE1=I Never Cared for You
TTITLE2=Everywhere I Go
TTITLE3=Darkness on the Face of the Earth
TTITLE4=My Own Peculiar Way
TTITLE5=These Lonely Nights
TTITLE6=Home Motel
TTITLE7=The Maker
TTITLE8=I Just Can't Let You Say Goodbye
TTITLE9=I've Just Destroyed the World
TTITLE10=Somebody Pick Up My Pieces
TTITLE11=Three Days
TTITLE12=I've Loved You All Over the World
TTITLE13=Annie
EXTD=
EXTT0=
EXTT1=
EXTT2=
EXTT3=
EXTT4=
EXTT5=
EXTT6=
EXTT7=
EXTT8=
EXTT9=
EXTT10=
EXTT11=
EXTT12=
EXTT13=
PLAYORDER=
